#define lightning_width 16
#define lightning_height 16
static unsigned char lightning_bits[] = {
   0x00, 0x00, 0x00, 0x00, 0x00, 0x00, 0x00, 0x00, 0xc0, 0x03, 0xe0, 0x07,
   0xe0, 0x0f, 0xf8, 0x1f, 0xfc, 0x3f, 0xfe, 0x3f, 0x7e, 0x3c, 0x7c, 0x1e,
   0x38, 0x0c, 0x00, 0x00, 0x00, 0x00, 0x00, 0x00 };
