#define moon_width 16
#define moon_height 16
static unsigned char moon_bits[] = {
   0x00, 0x00, 0xe0, 0x00, 0x90, 0x00, 0x48, 0x00, 0x24, 0x00, 0x22, 0x00,
   0x22, 0x00, 0x22, 0x00, 0x22, 0x60, 0x42, 0x50, 0x82, 0x4f, 0x04, 0x20,
   0x08, 0x10, 0x10, 0x08, 0xe0, 0x07, 0x00, 0x00 };
